<?xml version="1.0" encoding="UTF-8" standalone="no"?>
<svg
   width="35"
   height="32"
   viewBox="0 0 35 32"
   fill="none"
   version="1.1"
   id="svg2"
   xmlns="http://www.w3.org/2000/svg"
   xmlns:svg="http://www.w3.org/2000/svg">
  <path
     d="M 25.4087,0 C 22.3743,0 19.4621,1.41253 17.5613,3.64469 15.6604,1.41253 12.7482,0 9.71384,0 4.34272,0 0.122559,4.22016 0.122559,9.59128 0.122559,16.1831 6.05171,21.5542 15.0326,29.7155 L 17.5613,32 20.0899,29.6981 c 8.9809,-8.1439 14.91,-13.515 14.91,-20.10682 C 34.9999,4.22016 30.7798,0 25.4087,0 Z m -7.6731,27.1172 -0.1743,0.1744 -0.1744,-0.1744 C 9.08605,19.6011 3.6103,14.6311 3.6103,9.59128 c 0,-3.48774 2.6158,-6.10354 6.10354,-6.10354 2.68556,0 5.30136,1.72643 6.22566,4.11553 h 3.261 c 0.9068,-2.3891 3.5226,-4.11553 6.2082,-4.11553 3.4877,0 6.1035,2.6158 6.1035,6.10354 0,5.03982 -5.4757,10.00982 -13.7766,17.52592 z"
     fill="url(#paint0_linear_611_513)"
     id="path1"
     style="fill:url(#paint0_linear_611_513)" />
  <defs
     id="defs2">
    <linearGradient
       id="paint0_linear_611_513"
       x1="14.6952"
       y1="-3.8400099"
       x2="64.944801"
       y2="3.41189"
       gradientUnits="userSpaceOnUse">
      <stop
         stop-color="#002F52"
         id="stop1" />
      <stop
         offset="1"
         stop-color="#326589"
         id="stop2" />
    </linearGradient>
  </defs>
</svg>
